<mxfile host="app.diagrams.net" modified="2024-04-09T16:10:08.247Z" agent="Mozilla/5.0 (Windows NT 10.0; Win64; x64) AppleWebKit/537.36 (KHTML, like Gecko) Chrome/123.0.0.0 Safari/537.36" version="24.2.3" etag="zUwX7bSjG9PuvI_pumYb" type="github">
  <diagram name="Page-1" id="81gW-YYSp7fVmCIHYZDy">
    <mxGraphModel>
      <root>
        <mxCell id="0" />
        <mxCell id="1" parent="0" />
      </root>
    </mxGraphModel>
  </diagram>
</mxfile>
